<svg id="svg" version="1.1" 
    xmlns="http://www.w3.org/2000/svg" 
    xmlns:xlink="http://www.w3.org/1999/xlink" width="400" height="400" viewBox="0, 0, 400,400">
    <g id="svgg">
        <path id="path0" d="M314.099 190.101 C 298.644 205.556,285.999 218.431,285.999 218.714 C 286.000 218.997,287.800 221.015,290.000 223.200 C 292.200 225.385,294.000 227.319,294.000 227.499 C 294.000 227.678,294.900 228.769,296.000 229.922 C 297.100 231.075,298.000 232.168,298.000 232.350 C 298.000 232.532,298.540 233.246,299.200 233.937 C 299.860 234.628,300.400 235.348,300.400 235.537 C 300.400 235.726,300.940 236.446,301.600 237.137 C 302.260 237.828,302.800 238.625,302.800 238.908 C 302.800 239.191,303.160 239.683,303.600 240.000 C 304.040 240.317,304.400 240.857,304.400 241.200 C 304.400 241.543,304.760 242.083,305.200 242.400 C 305.640 242.717,306.000 243.297,306.000 243.688 C 306.000 244.080,306.180 244.400,306.400 244.400 C 306.620 244.400,306.800 244.636,306.800 244.925 C 306.800 245.213,307.160 245.836,307.600 246.308 C 308.040 246.780,308.400 247.444,308.400 247.783 C 308.400 248.122,308.580 248.400,308.800 248.400 C 309.020 248.400,309.200 248.745,309.200 249.167 C 309.200 249.588,309.337 249.993,309.504 250.067 C 309.912 250.246,313.207 256.867,313.203 257.500 C 313.201 257.775,313.380 258.000,313.600 258.000 C 313.820 258.000,314.000 258.360,314.000 258.800 C 314.000 259.240,314.180 259.600,314.400 259.600 C 314.620 259.600,314.800 260.039,314.800 260.576 C 314.800 261.113,314.980 261.664,315.200 261.800 C 315.420 261.936,315.600 262.397,315.600 262.824 C 315.600 263.251,315.780 263.600,316.000 263.600 C 316.220 263.600,316.400 264.039,316.400 264.576 C 316.400 265.113,316.580 265.664,316.800 265.800 C 317.020 265.936,317.200 266.397,317.200 266.824 C 317.200 267.251,317.380 267.600,317.600 267.600 C 317.820 267.600,318.000 268.140,318.000 268.800 C 318.000 269.460,318.180 270.000,318.400 270.000 C 318.620 270.000,318.800 270.540,318.800 271.200 C 318.800 271.860,318.980 272.400,319.200 272.400 C 319.420 272.400,319.600 273.019,319.600 273.776 C 319.600 274.533,319.780 275.264,320.000 275.400 C 320.220 275.536,320.400 276.177,320.400 276.824 C 320.400 277.471,320.580 278.000,320.800 278.000 C 321.020 278.000,321.200 278.720,321.200 279.600 C 321.200 280.480,321.380 281.200,321.600 281.200 C 321.820 281.200,322.000 281.999,322.000 282.976 C 322.000 283.953,322.180 284.864,322.400 285.000 C 322.620 285.136,322.800 286.137,322.800 287.224 C 322.800 288.311,322.980 289.200,323.200 289.200 C 323.431 289.200,323.600 290.459,323.600 292.176 C 323.600 293.813,323.780 295.264,324.000 295.400 C 324.227 295.540,324.400 297.537,324.400 300.024 L 324.400 304.400 362.262 304.400 L 400.124 304.400 399.893 291.310 C 399.737 282.515,399.520 278.173,399.231 278.077 C 398.978 277.993,398.800 276.786,398.800 275.167 C 398.800 273.589,398.628 272.400,398.400 272.400 C 398.178 272.400,398.000 271.333,398.000 270.000 C 398.000 268.667,397.822 267.600,397.600 267.600 C 397.380 267.600,397.200 266.700,397.200 265.600 C 397.200 264.500,397.020 263.600,396.800 263.600 C 396.580 263.600,396.400 262.700,396.400 261.600 C 396.400 260.500,396.220 259.600,396.000 259.600 C 395.780 259.600,395.600 258.880,395.600 258.000 C 395.600 257.120,395.420 256.400,395.200 256.400 C 394.980 256.400,394.800 255.680,394.800 254.800 C 394.800 253.920,394.620 253.200,394.400 253.200 C 394.180 253.200,394.000 252.480,394.000 251.600 C 394.000 250.720,393.820 250.000,393.600 250.000 C 393.380 250.000,393.200 249.381,393.200 248.624 C 393.200 247.867,393.020 247.136,392.800 247.000 C 392.580 246.864,392.400 246.223,392.400 245.576 C 392.400 244.929,392.220 244.400,392.000 244.400 C 391.780 244.400,391.600 243.860,391.600 243.200 C 391.600 242.540,391.420 242.000,391.200 242.000 C 390.980 242.000,390.800 241.460,390.800 240.800 C 390.800 240.140,390.620 239.600,390.400 239.600 C 390.180 239.600,390.000 239.060,390.000 238.400 C 390.000 237.740,389.820 237.200,389.600 237.200 C 389.380 237.200,389.200 236.761,389.200 236.224 C 389.200 235.687,389.020 235.136,388.800 235.000 C 388.580 234.864,388.400 234.324,388.400 233.800 C 388.400 233.276,388.220 232.736,388.000 232.600 C 387.780 232.464,387.600 232.003,387.600 231.576 C 387.600 231.149,387.420 230.800,387.200 230.800 C 386.980 230.800,386.800 230.361,386.800 229.824 C 386.800 229.287,386.620 228.736,386.400 228.600 C 386.180 228.464,386.000 228.003,386.000 227.576 C 386.000 227.149,385.820 226.800,385.600 226.800 C 385.380 226.800,385.200 226.445,385.200 226.012 C 385.200 225.579,384.840 224.583,384.400 223.800 C 383.960 223.017,383.600 222.111,383.600 221.788 C 383.600 221.465,383.420 221.200,383.200 221.200 C 382.980 221.200,382.800 220.840,382.800 220.400 C 382.800 219.960,382.620 219.600,382.400 219.600 C 382.180 219.600,382.001 219.285,382.003 218.900 C 382.006 218.000,377.998 210.000,377.543 210.000 C 377.355 210.000,377.200 209.640,377.200 209.200 C 377.200 208.760,377.020 208.400,376.800 208.400 C 376.580 208.400,376.400 208.040,376.400 207.600 C 376.400 207.160,376.220 206.800,376.000 206.800 C 375.780 206.800,375.600 206.440,375.600 206.000 C 375.600 205.560,375.420 205.200,375.200 205.200 C 374.980 205.200,374.800 204.964,374.800 204.675 C 374.800 204.387,374.440 203.764,374.000 203.292 C 373.560 202.820,373.200 202.156,373.200 201.817 C 373.200 201.478,373.020 201.200,372.800 201.200 C 372.580 201.200,372.400 200.964,372.400 200.675 C 372.400 200.387,372.040 199.764,371.600 199.292 C 371.160 198.820,370.800 198.156,370.800 197.817 C 370.800 197.478,370.620 197.200,370.400 197.200 C 370.180 197.200,370.000 196.964,370.000 196.675 C 370.000 196.387,369.685 195.802,369.300 195.375 C 368.915 194.949,368.345 194.105,368.032 193.500 C 367.720 192.895,367.315 192.400,367.132 192.400 C 366.950 192.400,366.800 192.164,366.800 191.875 C 366.800 191.587,366.440 190.964,366.000 190.492 C 365.560 190.020,365.200 189.473,365.200 189.276 C 365.200 189.079,364.705 188.394,364.100 187.752 C 363.495 187.111,362.745 186.094,362.432 185.493 C 362.120 184.892,361.715 184.400,361.532 184.400 C 361.350 184.400,361.200 184.152,361.200 183.848 C 361.200 183.545,360.480 182.555,359.600 181.648 C 358.720 180.741,358.000 179.841,358.000 179.648 C 358.000 179.455,357.280 178.555,356.400 177.648 C 355.520 176.741,354.800 175.835,354.800 175.634 C 354.800 175.434,353.720 174.173,352.400 172.832 C 351.080 171.492,350.000 170.257,350.000 170.089 C 350.000 169.793,342.616 161.999,342.339 162.001 C 342.262 162.002,329.555 174.647,314.099 190.101 " stroke="none" fill="#bc1404" fill-rule="evenodd"></path>
        <path id="path1" d="M100.516 167.500 C 126.294 205.871,127.028 206.996,126.882 207.926 C 126.792 208.501,127.052 209.125,127.569 209.573 C 128.026 209.969,128.400 210.548,128.400 210.859 C 128.400 211.169,128.760 211.683,129.200 212.000 C 129.640 212.317,130.000 212.857,130.000 213.200 C 130.000 213.543,130.360 214.083,130.800 214.400 C 131.240 214.717,131.600 215.257,131.600 215.600 C 131.600 215.943,131.960 216.483,132.400 216.800 C 132.840 217.117,133.200 217.625,133.200 217.928 C 133.200 218.231,133.740 218.983,134.400 219.600 C 135.060 220.217,135.600 220.969,135.600 221.272 C 135.600 221.575,135.960 222.083,136.400 222.400 C 136.840 222.717,137.200 223.257,137.200 223.600 C 137.200 223.943,137.560 224.483,138.000 224.800 C 138.440 225.117,138.800 225.657,138.800 226.000 C 138.800 226.343,139.160 226.883,139.600 227.200 C 140.040 227.517,140.400 228.057,140.400 228.400 C 140.400 228.743,140.760 229.283,141.200 229.600 C 141.640 229.917,142.000 230.457,142.000 230.800 C 142.000 231.143,142.360 231.683,142.800 232.000 C 143.240 232.317,143.600 232.857,143.600 233.200 C 143.600 233.543,143.960 234.083,144.400 234.400 C 144.840 234.717,145.200 235.257,145.200 235.600 C 145.200 235.943,145.560 236.483,146.000 236.800 C 146.440 237.117,146.800 237.657,146.800 238.000 C 146.800 238.343,147.160 238.883,147.600 239.200 C 148.040 239.517,148.400 240.025,148.400 240.328 C 148.400 240.631,148.940 241.383,149.600 242.000 C 150.260 242.617,150.800 243.369,150.800 243.672 C 150.800 243.975,151.160 244.483,151.600 244.800 C 152.040 245.117,152.400 245.657,152.400 246.000 C 152.400 246.343,152.760 246.883,153.200 247.200 C 153.640 247.517,154.000 248.057,154.000 248.400 C 154.000 248.743,154.360 249.283,154.800 249.600 C 155.240 249.917,155.600 250.457,155.600 250.800 C 155.600 251.143,155.960 251.683,156.400 252.000 C 156.840 252.317,157.200 252.857,157.200 253.200 C 157.200 253.543,157.560 254.083,158.000 254.400 C 158.440 254.717,158.800 255.257,158.800 255.600 C 158.800 255.943,159.160 256.483,159.600 256.800 C 160.040 257.117,160.400 257.657,160.400 258.000 C 160.400 258.343,160.760 258.883,161.200 259.200 C 161.640 259.517,162.000 260.025,162.000 260.328 C 162.000 260.631,162.540 261.383,163.200 262.000 C 163.860 262.617,164.400 263.369,164.400 263.672 C 164.400 263.975,164.760 264.483,165.200 264.800 C 165.640 265.117,166.000 265.657,166.000 266.000 C 166.000 266.343,166.360 266.883,166.800 267.200 C 167.240 267.517,167.600 268.057,167.600 268.400 C 167.600 268.743,167.960 269.283,168.400 269.600 C 168.840 269.917,169.200 270.457,169.200 270.800 C 169.200 271.143,169.560 271.683,170.000 272.000 C 170.440 272.317,170.800 272.857,170.800 273.200 C 170.800 273.543,171.160 274.083,171.600 274.400 C 172.040 274.717,172.400 275.225,172.400 275.528 C 172.400 275.831,172.940 276.583,173.600 277.200 C 174.260 277.817,174.800 278.569,174.800 278.872 C 174.800 279.175,175.160 279.683,175.600 280.000 C 176.040 280.317,176.400 280.857,176.400 281.200 C 176.400 281.543,176.760 282.083,177.200 282.400 C 177.640 282.717,178.000 283.257,178.000 283.600 C 178.000 283.943,178.360 284.483,178.800 284.800 C 179.240 285.117,179.600 285.657,179.600 286.000 C 179.600 286.343,179.960 286.883,180.400 287.200 C 180.840 287.517,181.200 288.057,181.200 288.400 C 181.200 288.743,181.560 289.283,182.000 289.600 C 182.440 289.917,182.800 290.425,182.800 290.728 C 182.800 291.031,183.340 291.783,184.000 292.400 C 184.660 293.017,185.200 293.769,185.200 294.072 C 185.200 294.375,185.560 294.883,186.000 295.200 C 186.440 295.517,186.800 296.057,186.800 296.400 C 186.800 296.743,187.160 297.283,187.600 297.600 C 188.040 297.917,188.400 298.425,188.400 298.728 C 188.400 299.031,188.940 299.783,189.600 300.400 C 190.260 301.017,190.800 301.769,190.800 302.072 C 190.800 302.375,191.160 302.883,191.600 303.200 C 192.040 303.517,192.400 304.057,192.400 304.400 C 192.400 304.743,192.760 305.283,193.200 305.600 C 193.640 305.917,194.000 306.425,194.000 306.728 C 194.000 307.031,194.540 307.783,195.200 308.400 C 195.860 309.017,196.400 309.725,196.400 309.974 C 196.400 310.563,199.037 313.200,199.626 313.200 C 199.875 313.200,200.583 313.740,201.200 314.400 C 201.817 315.060,202.609 315.600,202.960 315.600 C 203.312 315.600,203.600 315.780,203.600 316.000 C 203.600 316.220,204.140 316.400,204.800 316.400 C 205.460 316.400,206.000 316.580,206.000 316.800 C 206.000 317.020,206.540 317.200,207.200 317.200 C 207.860 317.200,208.400 317.380,208.400 317.600 C 208.400 317.844,210.267 318.000,213.200 318.000 C 216.133 318.000,218.000 317.844,218.000 317.600 C 218.000 317.380,218.540 317.200,219.200 317.200 C 219.860 317.200,220.400 317.020,220.400 316.800 C 220.400 316.580,220.720 316.400,221.112 316.400 C 221.503 316.400,222.083 316.040,222.400 315.600 C 222.717 315.160,223.213 314.800,223.502 314.800 C 223.790 314.800,224.651 314.176,225.413 313.413 C 226.176 312.651,226.800 311.790,226.800 311.502 C 226.800 311.213,227.160 310.717,227.600 310.400 C 228.040 310.083,228.400 309.503,228.400 309.112 C 228.400 308.720,228.580 308.400,228.800 308.400 C 229.020 308.400,229.200 307.860,229.200 307.200 C 229.200 306.540,229.380 306.000,229.600 306.000 C 229.848 306.000,230.000 303.867,230.000 300.400 C 230.000 296.933,229.848 294.800,229.600 294.800 C 229.380 294.800,229.200 294.260,229.200 293.600 C 229.200 292.940,229.020 292.400,228.800 292.400 C 228.580 292.400,228.400 292.040,228.400 291.600 C 228.400 291.160,228.220 290.800,228.000 290.800 C 227.780 290.800,227.600 290.440,227.600 290.000 C 227.600 289.560,227.420 289.200,227.200 289.200 C 226.980 289.200,226.800 288.924,226.800 288.587 C 226.800 288.250,224.820 286.006,222.400 283.600 C 219.980 281.194,218.000 279.039,218.000 278.811 C 218.000 278.583,200.540 260.938,179.200 239.600 C 157.860 218.262,140.400 200.667,140.399 200.502 C 140.399 200.336,139.839 200.180,139.156 200.155 C 138.068 200.116,135.090 197.287,115.255 177.455 C 102.793 164.995,92.460 154.800,92.291 154.800 C 92.122 154.800,95.824 160.515,100.516 167.500 " stroke="none" fill="#242423" fill-rule="evenodd"></path>
        <path id="path2" d="M200.000 144.000 L 200.000 184.400 204.976 184.400 C 207.863 184.400,210.057 184.568,210.200 184.800 C 210.336 185.020,211.967 185.200,213.824 185.200 C 215.808 185.200,217.200 185.365,217.200 185.600 C 217.200 185.822,218.267 186.000,219.600 186.000 C 220.933 186.000,222.000 186.178,222.000 186.400 C 222.000 186.620,222.900 186.800,224.000 186.800 C 225.100 186.800,226.000 186.980,226.000 187.200 C 226.000 187.420,226.709 187.600,227.576 187.600 C 228.443 187.600,229.264 187.780,229.400 188.000 C 229.536 188.220,230.256 188.400,231.000 188.400 C 231.744 188.400,232.464 188.580,232.600 188.800 C 232.736 189.020,233.467 189.200,234.224 189.200 C 234.981 189.200,235.600 189.380,235.600 189.600 C 235.600 189.820,236.140 190.000,236.800 190.000 C 237.460 190.000,238.000 190.180,238.000 190.400 C 238.000 190.620,238.540 190.800,239.200 190.800 C 239.860 190.800,240.400 190.980,240.400 191.200 C 240.400 191.420,240.940 191.600,241.600 191.600 C 242.260 191.600,242.800 191.780,242.800 192.000 C 242.800 192.220,243.149 192.400,243.576 192.400 C 244.003 192.400,244.464 192.580,244.600 192.800 C 244.736 193.020,245.287 193.200,245.824 193.200 C 246.361 193.200,246.800 193.380,246.800 193.600 C 246.800 193.820,247.065 194.000,247.388 194.000 C 247.711 194.000,248.617 194.360,249.400 194.800 C 250.183 195.240,251.179 195.600,251.612 195.600 C 252.045 195.600,252.400 195.780,252.400 196.000 C 252.400 196.220,252.760 196.400,253.200 196.400 C 253.640 196.400,254.000 196.580,254.000 196.800 C 254.000 197.020,254.360 197.200,254.800 197.200 C 255.240 197.200,255.600 197.380,255.600 197.600 C 255.600 197.820,255.960 198.000,256.400 198.000 C 256.840 198.000,257.200 198.180,257.200 198.400 C 257.200 198.620,257.560 198.800,258.000 198.800 C 258.440 198.800,258.800 198.952,258.800 199.137 C 258.800 199.323,259.655 199.908,260.700 200.437 C 261.745 200.967,262.660 201.535,262.733 201.700 C 262.807 201.865,263.212 202.000,263.633 202.000 C 264.055 202.000,264.400 202.150,264.400 202.332 C 264.400 202.515,264.895 202.920,265.500 203.232 C 266.105 203.545,266.949 204.115,267.375 204.500 C 267.802 204.885,268.387 205.200,268.675 205.200 C 268.964 205.200,269.200 205.350,269.200 205.532 C 269.200 205.715,269.692 206.120,270.293 206.432 C 270.894 206.745,271.911 207.495,272.552 208.100 C 273.194 208.705,273.874 209.200,274.063 209.200 C 274.252 209.200,274.972 209.740,275.663 210.400 C 276.354 211.060,277.068 211.600,277.250 211.600 C 277.432 211.600,278.525 212.500,279.678 213.600 C 280.831 214.700,281.930 215.600,282.119 215.600 C 282.308 215.600,283.140 216.305,283.968 217.167 L 285.474 218.734 313.636 190.570 C 329.125 175.079,341.859 162.222,341.934 161.998 C 342.073 161.582,334.466 154.000,333.911 154.000 C 333.743 154.000,332.508 152.920,331.168 151.600 C 329.827 150.280,328.566 149.200,328.366 149.200 C 328.165 149.200,327.259 148.480,326.352 147.600 C 325.445 146.720,324.545 146.000,324.352 146.000 C 324.159 146.000,323.259 145.280,322.352 144.400 C 321.445 143.520,320.455 142.800,320.152 142.800 C 319.848 142.800,319.600 142.650,319.600 142.468 C 319.600 142.285,319.108 141.880,318.507 141.568 C 317.906 141.255,316.889 140.505,316.248 139.900 C 315.606 139.295,314.838 138.800,314.541 138.800 C 314.243 138.800,314.000 138.650,314.000 138.468 C 314.000 138.285,313.505 137.880,312.900 137.568 C 312.295 137.255,311.451 136.685,311.025 136.300 C 310.598 135.915,310.096 135.600,309.908 135.600 C 309.720 135.600,309.180 135.240,308.708 134.800 C 308.236 134.360,307.613 134.000,307.325 134.000 C 307.036 134.000,306.800 133.820,306.800 133.600 C 306.800 133.380,306.522 133.200,306.183 133.200 C 305.844 133.200,305.180 132.840,304.708 132.400 C 304.236 131.960,303.613 131.600,303.325 131.600 C 303.036 131.600,302.800 131.420,302.800 131.200 C 302.800 130.980,302.522 130.800,302.183 130.800 C 301.844 130.800,301.180 130.440,300.708 130.000 C 300.236 129.560,299.613 129.200,299.325 129.200 C 299.036 129.200,298.800 129.020,298.800 128.800 C 298.800 128.580,298.440 128.400,298.000 128.400 C 297.560 128.400,297.200 128.220,297.200 128.000 C 297.200 127.780,296.840 127.600,296.400 127.600 C 295.960 127.600,295.600 127.420,295.600 127.200 C 295.600 126.980,295.240 126.800,294.800 126.800 C 294.360 126.800,294.000 126.645,294.000 126.457 C 294.000 126.002,286.000 121.994,285.100 121.997 C 284.715 121.999,284.400 121.820,284.400 121.600 C 284.400 121.380,284.040 121.200,283.600 121.200 C 283.160 121.200,282.800 121.020,282.800 120.800 C 282.800 120.580,282.535 120.400,282.212 120.400 C 281.889 120.400,280.983 120.040,280.200 119.600 C 279.417 119.160,278.421 118.800,277.988 118.800 C 277.555 118.800,277.200 118.620,277.200 118.400 C 277.200 118.180,276.851 118.000,276.424 118.000 C 275.997 118.000,275.536 117.820,275.400 117.600 C 275.264 117.380,274.713 117.200,274.176 117.200 C 273.639 117.200,273.200 117.020,273.200 116.800 C 273.200 116.580,272.851 116.400,272.424 116.400 C 271.997 116.400,271.536 116.220,271.400 116.000 C 271.264 115.780,270.724 115.600,270.200 115.600 C 269.676 115.600,269.136 115.420,269.000 115.200 C 268.864 114.980,268.313 114.800,267.776 114.800 C 267.239 114.800,266.800 114.620,266.800 114.400 C 266.800 114.180,266.260 114.000,265.600 114.000 C 264.940 114.000,264.400 113.820,264.400 113.600 C 264.400 113.380,263.860 113.200,263.200 113.200 C 262.540 113.200,262.000 113.020,262.000 112.800 C 262.000 112.580,261.460 112.400,260.800 112.400 C 260.140 112.400,259.600 112.220,259.600 112.000 C 259.600 111.780,259.071 111.600,258.424 111.600 C 257.777 111.600,257.136 111.420,257.000 111.200 C 256.864 110.980,256.133 110.800,255.376 110.800 C 254.619 110.800,254.000 110.620,254.000 110.400 C 254.000 110.180,253.280 110.000,252.400 110.000 C 251.520 110.000,250.800 109.820,250.800 109.600 C 250.800 109.380,250.080 109.200,249.200 109.200 C 248.320 109.200,247.600 109.020,247.600 108.800 C 247.600 108.580,246.880 108.400,246.000 108.400 C 245.120 108.400,244.400 108.220,244.400 108.000 C 244.400 107.780,243.500 107.600,242.400 107.600 C 241.300 107.600,240.400 107.420,240.400 107.200 C 240.400 106.980,239.500 106.800,238.400 106.800 C 237.300 106.800,236.400 106.620,236.400 106.400 C 236.400 106.178,235.333 106.000,234.000 106.000 C 232.667 106.000,231.600 105.822,231.600 105.600 C 231.600 105.371,230.400 105.200,228.800 105.200 C 227.200 105.200,226.000 105.029,226.000 104.800 C 226.000 104.563,224.533 104.400,222.400 104.400 C 220.267 104.400,218.800 104.237,218.800 104.000 C 218.800 103.745,215.400 103.600,209.400 103.600 L 200.000 103.600 200.000 144.000 " stroke="none" fill="#fcdc1c" fill-rule="evenodd"></path>
        <path id="path3" d="M181.400 104.000 C 181.264 104.220,179.644 104.400,177.800 104.400 C 175.956 104.400,174.336 104.580,174.200 104.800 C 174.064 105.020,172.804 105.200,171.400 105.200 C 169.996 105.200,168.736 105.380,168.600 105.600 C 168.464 105.820,167.384 106.000,166.200 106.000 C 165.016 106.000,163.936 106.180,163.800 106.400 C 163.664 106.620,162.764 106.800,161.800 106.800 C 160.836 106.800,159.936 106.980,159.800 107.200 C 159.664 107.420,158.764 107.600,157.800 107.600 C 156.836 107.600,155.936 107.780,155.800 108.000 C 155.664 108.220,154.944 108.400,154.200 108.400 C 153.456 108.400,152.736 108.580,152.600 108.800 C 152.464 109.020,151.744 109.200,151.000 109.200 C 150.256 109.200,149.536 109.380,149.400 109.600 C 149.264 109.820,148.544 110.000,147.800 110.000 C 147.056 110.000,146.336 110.180,146.200 110.400 C 146.064 110.620,145.434 110.800,144.800 110.800 C 144.166 110.800,143.536 110.980,143.400 111.200 C 143.264 111.420,142.634 111.600,142.000 111.600 C 141.366 111.600,140.736 111.780,140.600 112.000 C 140.464 112.220,139.924 112.400,139.400 112.400 C 138.876 112.400,138.336 112.580,138.200 112.800 C 138.064 113.020,137.524 113.200,137.000 113.200 C 136.476 113.200,135.936 113.380,135.800 113.600 C 135.664 113.820,135.201 114.000,134.771 114.000 C 134.341 114.000,133.632 114.180,133.195 114.400 C 132.758 114.620,132.042 114.980,131.605 115.200 C 131.168 115.420,130.536 115.600,130.200 115.600 C 129.864 115.600,129.277 115.759,128.895 115.953 C 128.160 116.327,126.401 117.076,124.900 117.654 C 122.571 118.550,122.077 118.754,120.300 119.549 C 119.255 120.017,117.635 120.737,116.700 121.150 C 112.284 123.098,101.362 128.745,99.644 129.968 C 99.002 130.426,98.357 130.800,98.210 130.800 C 98.064 130.800,97.159 131.340,96.200 132.000 C 95.241 132.660,94.349 133.200,94.217 133.200 C 93.407 133.200,74.932 146.360,72.761 148.484 C 72.452 148.786,71.823 149.295,71.363 149.616 C 67.062 152.615,48.615 171.062,45.616 175.363 C 45.295 175.823,44.786 176.452,44.484 176.761 C 42.360 178.932,29.200 197.407,29.200 198.217 C 29.200 198.349,28.660 199.241,28.000 200.200 C 27.340 201.159,26.800 202.064,26.800 202.210 C 26.800 202.357,26.426 203.002,25.968 203.644 C 24.745 205.362,19.098 216.284,17.150 220.700 C 16.737 221.635,16.017 223.255,15.549 224.300 C 15.081 225.345,14.541 226.605,14.349 227.100 C 14.157 227.595,13.796 228.495,13.546 229.100 C 13.297 229.705,12.916 230.650,12.700 231.200 C 12.484 231.750,12.148 232.513,11.953 232.895 C 11.759 233.277,11.600 233.864,11.600 234.200 C 11.600 234.536,11.420 235.168,11.200 235.605 C 10.980 236.042,10.620 236.758,10.400 237.195 C 10.180 237.632,10.000 238.341,10.000 238.771 C 10.000 239.201,9.820 239.664,9.600 239.800 C 9.380 239.936,9.200 240.476,9.200 241.000 C 9.200 241.524,9.020 242.064,8.800 242.200 C 8.580 242.336,8.400 242.876,8.400 243.400 C 8.400 243.924,8.220 244.464,8.000 244.600 C 7.780 244.736,7.600 245.366,7.600 246.000 C 7.600 246.634,7.420 247.264,7.200 247.400 C 6.980 247.536,6.800 248.166,6.800 248.800 C 6.800 249.434,6.620 250.064,6.400 250.200 C 6.180 250.336,6.000 251.056,6.000 251.800 C 6.000 252.544,5.820 253.264,5.600 253.400 C 5.380 253.536,5.200 254.256,5.200 255.000 C 5.200 255.744,5.020 256.464,4.800 256.600 C 4.580 256.736,4.400 257.456,4.400 258.200 C 4.400 258.944,4.220 259.664,4.000 259.800 C 3.780 259.936,3.600 260.836,3.600 261.800 C 3.600 262.764,3.420 263.664,3.200 263.800 C 2.980 263.936,2.800 264.836,2.800 265.800 C 2.800 266.764,2.620 267.664,2.400 267.800 C 2.180 267.936,2.000 269.016,2.000 270.200 C 2.000 271.384,1.820 272.464,1.600 272.600 C 1.380 272.736,1.200 273.971,1.200 275.344 C 1.200 276.717,1.003 278.037,0.763 278.277 C 0.475 278.565,0.250 283.095,0.102 291.559 L -0.122 304.404 37.639 304.302 L 75.400 304.200 75.514 299.806 C 75.577 297.389,75.802 295.238,76.014 295.026 C 76.227 294.813,76.400 293.427,76.400 291.944 C 76.400 290.461,76.580 289.136,76.800 289.000 C 77.020 288.864,77.200 287.874,77.200 286.800 C 77.200 285.726,77.380 284.736,77.600 284.600 C 77.820 284.464,78.000 283.654,78.000 282.800 C 78.000 281.946,78.180 281.136,78.400 281.000 C 78.620 280.864,78.800 280.144,78.800 279.400 C 78.800 278.656,78.980 277.936,79.200 277.800 C 79.420 277.664,79.600 277.034,79.600 276.400 C 79.600 275.766,79.780 275.136,80.000 275.000 C 80.220 274.864,80.400 274.234,80.400 273.600 C 80.400 272.966,80.580 272.336,80.800 272.200 C 81.020 272.064,81.200 271.524,81.200 271.000 C 81.200 270.476,81.380 269.936,81.600 269.800 C 81.820 269.664,82.000 269.201,82.000 268.771 C 82.000 268.341,82.159 267.677,82.353 267.295 C 82.727 266.560,83.476 264.801,84.054 263.300 C 84.944 260.987,85.150 260.484,85.898 258.800 C 87.403 255.411,91.556 247.244,92.000 246.800 C 92.244 246.556,93.159 244.971,93.882 243.542 C 94.176 242.960,94.683 242.263,95.008 241.993 C 95.334 241.723,95.600 241.254,95.600 240.951 C 95.600 240.648,95.780 240.400,96.000 240.400 C 96.220 240.400,96.400 240.196,96.400 239.946 C 96.400 239.456,100.949 233.282,104.171 229.400 C 106.785 226.250,117.596 215.450,120.400 213.187 C 121.610 212.210,122.690 211.317,122.800 211.203 C 122.910 211.089,123.849 210.366,124.888 209.597 C 127.290 207.819,127.679 208.889,121.070 199.093 C 117.919 194.422,110.427 183.310,104.422 174.400 C 98.418 165.490,92.919 157.390,92.203 156.400 C 90.656 154.261,90.111 152.800,90.860 152.800 C 91.320 152.800,96.593 157.978,128.811 190.061 C 140.146 201.348,138.485 200.509,144.041 197.754 C 149.422 195.087,151.348 194.214,155.200 192.700 C 155.750 192.484,156.513 192.148,156.895 191.953 C 157.277 191.759,157.941 191.600,158.371 191.600 C 158.801 191.600,159.264 191.420,159.400 191.200 C 159.536 190.980,160.076 190.800,160.600 190.800 C 161.124 190.800,161.664 190.620,161.800 190.400 C 161.936 190.180,162.476 190.000,163.000 190.000 C 163.524 190.000,164.064 189.820,164.200 189.600 C 164.336 189.380,164.966 189.200,165.600 189.200 C 166.234 189.200,166.852 189.040,166.973 188.844 C 167.180 188.508,168.193 188.272,171.703 187.742 C 172.529 187.618,173.305 187.355,173.426 187.158 C 173.548 186.961,174.436 186.800,175.400 186.800 C 176.364 186.800,177.264 186.620,177.400 186.400 C 177.536 186.180,178.706 186.000,180.000 186.000 C 181.294 186.000,182.464 185.820,182.600 185.600 C 182.736 185.380,184.266 185.200,186.000 185.200 C 187.734 185.200,189.264 185.020,189.400 184.800 C 189.544 184.567,191.804 184.400,194.824 184.400 L 200.000 184.400 200.000 144.000 L 200.000 103.600 190.824 103.600 C 185.137 103.600,181.553 103.752,181.400 104.000 " stroke="none" fill="#6cbc14" fill-rule="evenodd"></path>
        <path id="path4" d="M90.624 153.700 C 90.776 154.195,91.487 155.410,92.203 156.400 C 92.919 157.390,98.418 165.490,104.422 174.400 C 110.427 183.310,117.908 194.406,121.046 199.057 C 124.184 203.709,126.845 207.422,126.958 207.309 C 127.071 207.196,123.087 201.050,118.106 193.652 C 96.226 161.156,92.003 154.800,92.294 154.800 C 92.464 154.800,102.760 164.959,115.175 177.375 C 137.020 199.223,139.105 201.108,140.158 199.963 C 140.487 199.605,140.468 199.557,140.082 199.776 C 139.230 200.258,137.903 199.115,128.811 190.061 C 88.868 150.285,89.862 151.232,90.624 153.700 M64.575 155.300 L 63.400 156.600 64.700 155.425 C 65.415 154.779,66.000 154.194,66.000 154.125 C 66.000 153.816,65.670 154.088,64.575 155.300 M50.975 168.900 L 49.800 170.200 51.100 169.025 C 51.815 168.379,52.400 167.794,52.400 167.725 C 52.400 167.416,52.070 167.688,50.975 168.900 " stroke="none" fill="#5e9415" fill-rule="evenodd"></path>
    </g>
</svg>